<svg fill="none" height="493" viewBox="0 0 646 493" width="646" xmlns="http://www.w3.org/2000/svg" xmlns:xlink="http://www.w3.org/1999/xlink"><linearGradient id="a"><stop offset="0" stop-color="#0277bd"/><stop offset="1" stop-color="#00aede"/></linearGradient><linearGradient id="b" gradientUnits="userSpaceOnUse" x1="657.23" x2="121.992" xlink:href="#a" y1="474.217" y2="239.324"/><linearGradient id="c" gradientUnits="userSpaceOnUse" x1="24.7553" x2="134.525" xlink:href="#a" y1="395.096" y2="663.439"/><path d="m62.8574 478.413c11.37-7.582 22.723-23.068 37.4086-33.731 9.734-7.069 23.107-11.682 31.076-11.682 8.148 0 13.73 1.472 18.923 4.405 4.725 2.67 8.689 5.963 18.377 15.085 14.068 13.245 21.323 19.272 33.095 25.923 16.584 9.368 35.041 14.234 56.305 14.234 21.265 0 39.722-4.866 56.306-14.234 11.772-6.651 19.026-12.678 33.094-25.923 9.689-9.122 13.653-12.415 18.378-15.085 5.193-2.933 10.775-4.405 18.922-4.405 8.148 0 13.73 1.472 18.923 4.405 4.725 2.67 8.69 5.963 18.378 15.085 14.068 13.246 21.322 19.272 33.094 25.923 16.584 9.368 35.041 14.234 56.305 14.234 21.265 0 39.721-4.866 56.305-14.234 11.772-6.65 21.026-12.677 35.094-25.922 1.066-1.005 42.327-51.552 42.905-52.095l-62.773-32.336c2.37-2.409-1.126 1.057-2.231 2.097-8.011 10.594-29.889 35.577-41.327 41.143-5.457 2.655-14.383 4.931-22.002 4.649-8.353-.309-15.798-2.428-19.205-3.707-6.514-2.445-14.378-5.963-24.067-15.085-14.067-13.245-21.322-19.272-33.094-25.923-16.583-9.368-35.04-14.234-56.305-14.234-21.264 0-39.721 4.866-56.304 14.234-11.772 6.651-19.026 12.677-33.094 25.923-9.689 9.122-13.653 12.415-18.378 15.085-5.193 2.934-10.776 4.405-18.924 4.405s-13.73-1.471-18.923-4.405c-4.726-2.67-8.69-5.963-18.378-15.085-14.068-13.246-21.322-19.272-33.094-25.923-16.584-9.368-35.04-14.234-56.305-14.234-36.6758 0-73.2541 9.277-131.2873125 87.682z" fill="url(#b)"/><path d="m168.642 452.49c14.068 13.245 21.323 19.272 33.095 25.923 16.584 9.368 35.041 14.234 56.305 14.234 21.265 0 39.722-4.866 56.306-14.234 11.772-6.651 19.026-12.678 33.094-25.923 9.689-9.122 13.653-12.415 18.378-15.085 5.193-2.933 10.775-4.405 18.922-4.405 8.148 0 13.73 1.472 18.923 4.405 4.725 2.67 8.69 5.963 18.378 15.085 14.068 13.246 21.322 19.272 33.094 25.923 16.584 9.368 35.041 14.234 56.305 14.234 21.265 0 40.663-4.886 57.179-14.234 38.337-19.242 76.431-77.466 77.009-78.009-32.245 29.45-62.161 44.23-89.748 44.343-40.911.167-72.052-38.468-81.741-47.59-14.067-13.245-21.322-19.272-33.094-25.923-16.583-9.368-35.04-14.234-56.305-14.234-21.264 0-39.721 4.866-56.304 14.234-11.772 6.651-19.026 12.677-33.094 25.923-9.689 9.122-13.653 12.415-18.378 15.085-5.193 2.934-10.776 4.405-18.924 4.405s-13.73-1.471-18.923-4.405c-4.726-2.67-8.69-5.963-18.378-15.085-14.068-13.246-21.322-19.272-33.094-25.923-16.584-9.368-35.04-14.234-56.305-14.234-15.447 0-69.3166-1.827-131.3111162 87.747 33.1076162-28.182 63.3265162-40.686 90.6566162-37.513 40.9955 4.761 73.4605 41.024 77.9545 45.256z" fill="url(#c)"/><g fill="#252525"><path d="m497.18 67.5146v29.8977h65.625c0-15.4794 0-27.089 0-34.8287 0-21.6691-22.433-41.8636-67.299-60.5836z"/><path d="m329.131 67.5146-4.984-65.5146c-40.427 14.0916-60.641 32.5862-60.641 55.4836v39.9287h65.625z"/><path d="m447.823 67.5146v231.6544h-65.515v-231.6544h-53.177c-19.901 0-34.391 2.5129-43.47 7.5388-9.079 5.0258-16.464 12.4788-22.155 22.3589 0-17.7461 0-31.0557 0-39.9287 0-34.3461 31.102-55.4836 60.641-55.4836h171.604c42.494 0 67.299 28.08 67.299 60.5836 0 7.7397-.084 19.3493-.251 34.8287-6.818-9.8801-14.496-17.3331-23.033-22.3589-8.536-5.0259-22.65-7.5388-42.341-7.5388z"/><path clip-rule="evenodd" d="m131.638 242.656-.132.017c.044.052.088.104.132.155.08 36.456 18.607 55.351 55.582 56.687.285.073.543.11.775.11h131.651v-65.625h-122.505l.012-.081c0-76.279 0-133.487 0-171.6265 0-16.3071-8.988-62.2925-70.456-62.2925-40.9794 0-53.4579 0-37.4357 0v65.625h42.3767v176.967z" fill-rule="evenodd"/></g></svg>
