<?xml version="1.0" encoding="UTF-8" standalone="no"?>
<!-- Created with Inkscape (http://www.inkscape.org/) -->

<svg
   xmlns:dc="http://purl.org/dc/elements/1.1/"
   xmlns:cc="http://creativecommons.org/ns#"
   xmlns:rdf="http://www.w3.org/1999/02/22-rdf-syntax-ns#"
   xmlns:svg="http://www.w3.org/2000/svg"
   xmlns="http://www.w3.org/2000/svg"
   xmlns:sodipodi="http://sodipodi.sourceforge.net/DTD/sodipodi-0.dtd"
   xmlns:inkscape="http://www.inkscape.org/namespaces/inkscape"
   width="600"
   height="600"
   id="svg2157"
   sodipodi:version="0.32"
   inkscape:version="0.92.4 (5da689c313, 2019-01-14)"
   version="1.0"
   sodipodi:docname="Blue_check_PD.svg"
   inkscape:output_extension="org.inkscape.output.svg.inkscape">
  <defs
     id="defs2159" />
  <sodipodi:namedview
     id="base"
     pagecolor="#ffffff"
     bordercolor="#666666"
     borderopacity="1.0"
     gridtolerance="10000"
     guidetolerance="10"
     objecttolerance="10"
     inkscape:pageopacity="0.0"
     inkscape:pageshadow="2"
     inkscape:zoom="0.98994949"
     inkscape:cx="58.347601"
     inkscape:cy="269.27922"
     inkscape:document-units="px"
     inkscape:current-layer="layer1"
     width="600px"
     height="600px"
     inkscape:window-width="1920"
     inkscape:window-height="1017"
     inkscape:window-x="1672"
     inkscape:window-y="-8"
     showgrid="false"
     inkscape:window-maximized="1" />
  <metadata
     id="metadata2162">
    <rdf:RDF>
      <cc:Work
         rdf:about="">
        <dc:format>image/svg+xml</dc:format>
        <dc:type
           rdf:resource="http://purl.org/dc/dcmitype/StillImage" />
      </cc:Work>
    </rdf:RDF>
  </metadata>
  <g
     inkscape:label="Layer 1"
     inkscape:groupmode="layer"
     id="layer1">
    <path
       id="check"
       d="M 25.257828,388.61333 L 150.45625,554.27704 C 187.80366,592.27704 230.15106,592.27704 244.49846,554.27704 C 304.95799,413.59515 467.18948,152.15947 574.3879,75.207333 C 603.02112,44.393193 556.09708,2.2137629 520.0424,22.567643 C 442.55598,59.297633 219.55415,375.7357 190.73563,465.21994 L 95.906641,334.51412 C 61.357035,284.54719 -7.1925678,340.58026 25.257828,388.61333 z "
       style="fill:#db2e39;fill-opacity:1;fill-rule:evenodd;stroke:#db2e39;stroke-width:0pt;stroke-linecap:butt;stroke-linejoin:miter;stroke-miterlimit:4;stroke-dasharray:none;stroke-opacity:0"
       sodipodi:nodetypes="cccccccc" />
    <path
       style="fill:#db2e39;fill-opacity:0;stroke-width:2.85714293"
       d="M 187.13705,577.63786 C 163.59467,569.2364 159.20326,564.31917 73.538911,450.43763 21.928214,381.82674 20.977918,380.30851 19.888778,364.72334 c -0.914677,-13.08865 0.06087,-17.5708 5.57265,-25.60348 8.931125,-13.01595 18.942418,-20.06157 31.371883,-22.0786 20.561192,-3.33663 26.376689,2.2346 81.143449,77.73505 27.84551,38.38732 51.42423,69.76055 52.39715,69.71832 0.97292,-0.0423 5.57823,-8.59952 10.23403,-19.01612 15.20567,-34.02028 41.30215,-78.39362 82.8691,-140.90708 C 350.42443,203.88776 416.41137,119.28888 470.88331,64.306317 519.04734,15.690777 544.60289,7.5864803 571.28974,32.464938 588.08426,48.121397 584.28254,66.38866 560.39406,84.818474 514.8944,119.92121 438.4982,215.11542 371.35671,320.37023 c -41.2754,64.70568 -68.51568,112.77883 -103.49957,182.65408 -26.81649,53.56209 -34.64196,66.82815 -42.56538,72.15869 -10.92085,7.34709 -22.37983,8.08434 -38.15471,2.45486 z"
       id="path5079"
       inkscape:connector-curvature="0" />
    <path
       style="fill:#db2e39;fill-opacity:0;stroke-width:2.85714293"
       d="m 182.83529,575.7312 c -5.11916,-2.22483 -13.67627,-7.37734 -19.01581,-11.45 -8.75923,-6.68097 -133.269885,-168.35277 -141.228421,-183.37909 -4.729722,-8.93005 -4.077646,-28.41102 1.332617,-39.81228 9.756909,-20.56117 38.839573,-30.16823 56.905827,-18.79806 4.834026,3.04234 30.579467,35.7426 58.049237,73.73049 27.14943,37.54491 50.24624,68.58683 51.32624,68.98203 1.08,0.39522 4.84108,-6.6762 8.35794,-15.71429 21.96368,-56.44497 133.99314,-224.09416 215.27077,-322.14714 32.26022,-38.9186 83.95848,-90.316551 100.39505,-99.811841 23.90997,-13.812644 52.95292,-7.97515 63.69766,12.802934 8.85346,17.120684 6.75437,20.947267 -31.80094,57.972098 -19.80957,19.023219 -45.77312,46.195869 -57.69675,60.383659 -79.79077,94.94222 -182.02517,257.4628 -234.59907,372.93886 -18.38035,40.37154 -26.4319,48.62169 -47.29314,48.4596 -7.91651,-0.0614 -18.58205,-1.93214 -23.70121,-4.15697 z"
       id="path5081"
       inkscape:connector-curvature="0" />
    <path
       style="fill:#db2e39;fill-opacity:0;stroke-width:2.85714293"
       d="m 182.83529,575.7312 c -5.11916,-2.22483 -13.67627,-7.37734 -19.01581,-11.45 -8.75923,-6.68097 -133.269885,-168.35277 -141.228421,-183.37909 -4.729722,-8.93005 -4.077646,-28.41102 1.332617,-39.81228 9.756909,-20.56117 38.839573,-30.16823 56.905827,-18.79806 4.834026,3.04234 30.579467,35.7426 58.049237,73.73049 27.14943,37.54491 50.24624,68.58683 51.32624,68.98203 1.08,0.39522 4.84108,-6.6762 8.35794,-15.71429 21.96368,-56.44497 133.99314,-224.09416 215.27077,-322.14714 32.26022,-38.9186 83.95848,-90.316551 100.39505,-99.811841 23.90997,-13.812644 52.95292,-7.97515 63.69766,12.802934 8.85346,17.120684 6.75437,20.947267 -31.80094,57.972098 -19.80957,19.023219 -45.77312,46.195869 -57.69675,60.383659 -79.79077,94.94222 -182.02517,257.4628 -234.59907,372.93886 -18.38035,40.37154 -26.4319,48.62169 -47.29314,48.4596 -7.91651,-0.0614 -18.58205,-1.93214 -23.70121,-4.15697 z"
       id="path5083"
       inkscape:connector-curvature="0" />
    <path
       style="fill:#db2e39;fill-opacity:0"
       id="path5085"
       d="m 421.37725,210.1747 c -2.26711,6.91299 -3.63972,13.97241 -6.51411,20.68028 -1.72842,4.96896 -4.42729,9.41003 -7.21093,13.82491 -2.01746,4.34696 -5.25232,7.86212 -8.18047,11.57982 -2.39068,3.62561 -4.88496,7.19995 -7.88603,10.34704 -3.16168,3.27561 -6.39282,6.49431 -9.46396,9.85615 -11.58747,10.93681 -31.6514,39.17063 -44.61124,25.18662 -2.58262,-4.54958 -2.28728,-9.86716 -1.23649,-14.82121 1.97205,-6.38981 4.24612,-12.68211 5.89942,-19.16472 1.17294,-5.9645 2.82352,-11.80629 3.78342,-17.81235 0.74466,-4.8251 2.3434,-9.41027 4.18751,-13.9033 1.21751,-4.4044 2.6586,-8.75413 3.84098,-13.17145 0.8402,-4.65646 2.28529,-9.16278 3.49176,-13.73248 2.40154,-14.93561 43.9007,-41.60239 41.69866,-22.2987 -1.36327,6.18915 -3.48591,12.18892 -6.08549,17.95976 -2.59376,4.67517 -4.65489,9.61984 -7.3128,14.25815 -2.51212,4.34208 -5.02533,8.68999 -8.15355,12.62231 -3.20727,3.1026 -5.05588,6.93853 -7.24361,10.73227 -2.4112,5.08531 -3.69637,0.67959 -0.19847,0.1453 4.81237,-0.71844 7.92682,3.00579 10.5588,6.47878 2.84508,4.57133 3.31234,9.93109 3.66718,15.17178 0.40705,3.95369 -0.22407,7.83241 -1.11777,11.66525 0,0 -38.30751,18.02493 -38.30751,18.02493 v 0 c 1.42322,-3.22628 2.10134,-6.71339 1.82861,-10.25572 -0.213,-4.35138 -0.27092,-8.98324 -2.54143,-12.84003 -2.51743,-3.0169 -4.46694,-3.72223 -8.41608,-3.1073 -4.58749,-0.25396 -6.5854,-4.32593 -4.321,-8.28967 2.95362,-3.7904 3.30431,-7.99057 7.14205,-10.94197 2.85131,-4.02326 6.20431,-7.65296 8.41977,-12.13141 2.58953,-4.68774 5.15186,-9.34412 7.44011,-14.20509 3.19355,-5.09865 5.00133,-10.96407 6.41431,-16.77245 5.25208,-14.96534 0.28328,-1.89155 39.01986,-20.63701 0.4499,-0.21771 -0.76675,0.65511 -1.06256,1.05798 -0.79025,1.07625 -1.58411,2.15939 -2.22602,3.33018 -0.35346,0.64467 -0.52096,1.37504 -0.78144,2.06256 -1.84115,4.01305 -2.5544,9.05439 -3.72269,13.31044 -0.89885,4.6764 -2.82199,8.95375 -3.58355,13.65094 -1.46268,4.44475 -3.70984,8.52788 -4.69237,13.15923 -0.79093,6.1759 -2.43083,12.11541 -3.6868,18.19176 -1.45391,6.57189 -3.67978,12.91298 -5.71767,19.3107 -1.2381,3.1549 -1.45778,6.90586 -1.1533,9.71963 -5.50922,-13.93668 -0.056,-1.24692 -36.04024,19.70757 -0.44757,0.26064 0.91161,-0.51596 1.28186,-0.87813 1.50052,-1.46777 2.90217,-3.06996 4.29034,-4.65337 3.52929,-2.86021 6.39773,-6.53894 9.49476,-9.84024 3.22594,-2.80732 5.82227,-5.93177 8.27707,-9.41994 2.21715,-4.22276 6.05185,-7.08941 8.3126,-11.28531 2.18058,-4.73816 6.07901,-8.48049 7.53484,-13.61578 2.9937,-6.54588 5.2529,-13.0768 6.47641,-20.21923 0,0 38.40726,-18.03748 38.40726,-18.03748 z"
       inkscape:connector-curvature="0" />
    <path
       style="fill:#db2e39;fill-opacity:0;stroke-width:0.71428573"
       d="M 199.90877,581.95165 C 186.3717,580.46949 169.4934,571.60019 155.61029,558.67344 148.07143,551.65391 25.859125,389.88712 21.911739,381.70285 c -3.635224,-7.53706 -4.675616,-12.15732 -4.584036,-20.35715 0.196172,-17.56475 10.873356,-33.81939 27.425487,-41.75178 6.786308,-3.25225 11.610905,-4.17753 20.021212,-3.83972 6.452068,0.25914 7.357119,0.48922 13.080729,3.32539 4.237063,2.09954 7.559565,4.42476 10.685293,7.47797 3.029186,2.95891 20.506326,26.50023 52.606356,70.85957 26.43857,36.53572 48.44925,66.84289 48.91263,67.34928 0.66212,0.72358 1.44283,-0.72905 3.64629,-6.78447 1.54208,-4.23785 6.52792,-15.25931 11.07966,-24.49214 C 255.76596,330.0797 389.4995,143.478 470.46942,62.774274 496.12946,37.198595 516.13906,22.53491 530.43805,18.827315 c 6.69996,-1.737237 17.95374,-1.157061 24.45825,1.260918 11.09873,4.125825 20.0053,11.725116 24.57217,20.96556 2.33985,4.734351 2.71659,6.214668 2.97911,11.705533 0.50907,10.647526 -3.49643,18.789644 -12.48174,25.372091 C 549.11424,93.406845 518.27385,124.1452 488.9836,158.8457 428.56,230.43027 354.62188,341.72327 295.84596,449.55999 c -12.64803,23.20546 -35.5993,68.89788 -43.95118,87.5 -11.73523,26.13783 -13.09927,28.68412 -18.04266,33.68061 -8.92357,9.01942 -20.13614,12.7228 -33.94335,11.21105 z"
       id="path5087"
       inkscape:connector-curvature="0" />
    <path
       style="fill:#db2e39;fill-opacity:0;stroke-width:0.71428573"
       d="M 199.90877,581.95165 C 186.3717,580.46949 169.4934,571.60019 155.61029,558.67344 148.07143,551.65391 25.859125,389.88712 21.911739,381.70285 c -3.635224,-7.53706 -4.675616,-12.15732 -4.584036,-20.35715 0.196172,-17.56475 10.873356,-33.81939 27.425487,-41.75178 6.786308,-3.25225 11.610905,-4.17753 20.021212,-3.83972 6.452068,0.25914 7.357119,0.48922 13.080729,3.32539 4.237063,2.09954 7.559565,4.42476 10.685293,7.47797 3.029186,2.95891 20.506326,26.50023 52.606356,70.85957 26.43857,36.53572 48.44925,66.84289 48.91263,67.34928 0.66212,0.72358 1.44283,-0.72905 3.64629,-6.78447 1.54208,-4.23785 6.52792,-15.25931 11.07966,-24.49214 C 255.76596,330.0797 389.4995,143.478 470.46942,62.774274 496.12946,37.198595 516.13906,22.53491 530.43805,18.827315 c 6.69996,-1.737237 17.95374,-1.157061 24.45825,1.260918 11.09873,4.125825 20.0053,11.725116 24.57217,20.96556 2.33985,4.734351 2.71659,6.214668 2.97911,11.705533 0.50907,10.647526 -3.49643,18.789644 -12.48174,25.372091 C 549.11424,93.406845 518.27385,124.1452 488.9836,158.8457 428.56,230.43027 354.62188,341.72327 295.84596,449.55999 c -12.64803,23.20546 -35.5993,68.89788 -43.95118,87.5 -11.73523,26.13783 -13.09927,28.68412 -18.04266,33.68061 -8.92357,9.01942 -20.13614,12.7228 -33.94335,11.21105 z"
       id="path5089"
       inkscape:connector-curvature="0" />
    <path
       style="fill:#db2e39;fill-opacity:0;stroke-width:0.71428573"
       d="M 199.90877,581.95165 C 186.3717,580.46949 169.4934,571.60019 155.61029,558.67344 148.07143,551.65391 25.859125,389.88712 21.911739,381.70285 c -3.635224,-7.53706 -4.675616,-12.15732 -4.584036,-20.35715 0.196172,-17.56475 10.873356,-33.81939 27.425487,-41.75178 6.786308,-3.25225 11.610905,-4.17753 20.021212,-3.83972 6.452068,0.25914 7.357119,0.48922 13.080729,3.32539 4.237063,2.09954 7.559565,4.42476 10.685293,7.47797 3.029186,2.95891 20.506326,26.50023 52.606356,70.85957 26.43857,36.53572 48.44925,66.84289 48.91263,67.34928 0.66212,0.72358 1.44283,-0.72905 3.64629,-6.78447 1.54208,-4.23785 6.52792,-15.25931 11.07966,-24.49214 C 255.76596,330.0797 389.4995,143.478 470.46942,62.774274 496.12946,37.198595 516.13906,22.53491 530.43805,18.827315 c 6.69996,-1.737237 17.95374,-1.157061 24.45825,1.260918 11.09873,4.125825 20.0053,11.725116 24.57217,20.96556 2.33985,4.734351 2.71659,6.214668 2.97911,11.705533 0.50907,10.647526 -3.49643,18.789644 -12.48174,25.372091 C 549.11424,93.406845 518.27385,124.1452 488.9836,158.8457 428.56,230.43027 354.62188,341.72327 295.84596,449.55999 c -12.64803,23.20546 -35.5993,68.89788 -43.95118,87.5 -11.73523,26.13783 -13.09927,28.68412 -18.04266,33.68061 -8.92357,9.01942 -20.13614,12.7228 -33.94335,11.21105 z"
       id="path5091"
       inkscape:connector-curvature="0" />
    <path
       style="fill:#db2e39;fill-opacity:0;stroke-width:0.71428573"
       d="M 199.90877,581.95165 C 186.3717,580.46949 169.4934,571.60019 155.61029,558.67344 148.07143,551.65391 25.859125,389.88712 21.911739,381.70285 c -3.635224,-7.53706 -4.675616,-12.15732 -4.584036,-20.35715 0.196172,-17.56475 10.873356,-33.81939 27.425487,-41.75178 6.786308,-3.25225 11.610905,-4.17753 20.021212,-3.83972 6.452068,0.25914 7.357119,0.48922 13.080729,3.32539 4.237063,2.09954 7.559565,4.42476 10.685293,7.47797 3.029186,2.95891 20.506326,26.50023 52.606356,70.85957 26.43857,36.53572 48.44925,66.84289 48.91263,67.34928 0.66212,0.72358 1.44283,-0.72905 3.64629,-6.78447 1.54208,-4.23785 6.52792,-15.25931 11.07966,-24.49214 C 255.76596,330.0797 389.4995,143.478 470.46942,62.774274 496.12946,37.198595 516.13906,22.53491 530.43805,18.827315 c 6.69996,-1.737237 17.95374,-1.157061 24.45825,1.260918 11.09873,4.125825 20.0053,11.725116 24.57217,20.96556 2.33985,4.734351 2.71659,6.214668 2.97911,11.705533 0.50907,10.647526 -3.49643,18.789644 -12.48174,25.372091 C 549.11424,93.406845 518.27385,124.1452 488.9836,158.8457 428.56,230.43027 354.62188,341.72327 295.84596,449.55999 c -12.64803,23.20546 -35.5993,68.89788 -43.95118,87.5 -11.73523,26.13783 -13.09927,28.68412 -18.04266,33.68061 -8.92357,9.01942 -20.13614,12.7228 -33.94335,11.21105 z"
       id="path5093"
       inkscape:connector-curvature="0" />
    <path
       style="opacity:1;vector-effect:none;fill:#db2e39;fill-opacity:0;stroke-width:0.51020408;stroke-linecap:butt;stroke-linejoin:miter;stroke-miterlimit:4;stroke-dasharray:none;stroke-dashoffset:0;stroke-opacity:1"
       d="M 199.90877,581.95165 C 186.3717,580.46949 169.4934,571.60019 155.61029,558.67344 148.07143,551.65391 25.859125,389.88712 21.911739,381.70285 c -3.635224,-7.53706 -4.675616,-12.15732 -4.584036,-20.35715 0.196172,-17.56475 10.873356,-33.81939 27.425487,-41.75178 6.786308,-3.25225 11.610905,-4.17753 20.021212,-3.83972 6.452068,0.25914 7.357119,0.48922 13.080729,3.32539 4.237063,2.09954 7.559565,4.42476 10.685293,7.47797 3.029186,2.95891 20.506326,26.50023 52.606356,70.85957 26.43857,36.53572 48.44925,66.84289 48.91263,67.34928 0.66212,0.72358 1.44283,-0.72905 3.64629,-6.78447 1.54208,-4.23785 6.52792,-15.25931 11.07966,-24.49214 C 255.76596,330.0797 389.4995,143.478 470.46942,62.774274 496.12946,37.198595 516.13906,22.53491 530.43805,18.827315 c 6.69996,-1.737237 17.95374,-1.157061 24.45825,1.260918 11.09873,4.125825 20.0053,11.725116 24.57217,20.96556 2.33985,4.734351 2.71659,6.214668 2.97911,11.705533 0.50907,10.647526 -3.49643,18.789644 -12.48174,25.372091 C 549.11424,93.406845 518.27385,124.1452 488.9836,158.8457 428.56,230.43027 354.62188,341.72327 295.84596,449.55999 c -12.64803,23.20546 -35.5993,68.89788 -43.95118,87.5 -11.73523,26.13783 -13.09927,28.68412 -18.04266,33.68061 -8.92357,9.01942 -20.13614,12.7228 -33.94335,11.21105 z"
       id="path5095"
       inkscape:connector-curvature="0" />
    <path
       style="opacity:1;vector-effect:none;fill:#db2e39;fill-opacity:0;stroke-width:0.36443147;stroke-linecap:butt;stroke-linejoin:miter;stroke-miterlimit:4;stroke-dasharray:none;stroke-dashoffset:0;stroke-opacity:1"
       d="M 199.90877,581.95165 C 186.3717,580.46949 169.4934,571.60019 155.61029,558.67344 148.07143,551.65391 25.859125,389.88712 21.911739,381.70285 c -3.635224,-7.53706 -4.675616,-12.15732 -4.584036,-20.35715 0.196172,-17.56475 10.873356,-33.81939 27.425487,-41.75178 6.786308,-3.25225 11.610905,-4.17753 20.021212,-3.83972 6.452068,0.25914 7.357119,0.48922 13.080729,3.32539 4.237063,2.09954 7.559565,4.42476 10.685293,7.47797 3.029186,2.95891 20.506326,26.50023 52.606356,70.85957 26.43857,36.53572 48.44925,66.84289 48.91263,67.34928 0.66212,0.72358 1.44283,-0.72905 3.64629,-6.78447 1.54208,-4.23785 6.52792,-15.25931 11.07966,-24.49214 C 255.76596,330.0797 389.4995,143.478 470.46942,62.774274 496.12946,37.198595 516.13906,22.53491 530.43805,18.827315 c 6.69996,-1.737237 17.95374,-1.157061 24.45825,1.260918 11.09873,4.125825 20.0053,11.725116 24.57217,20.96556 2.33985,4.734351 2.71659,6.214668 2.97911,11.705533 0.50907,10.647526 -3.49643,18.789644 -12.48174,25.372091 C 549.11424,93.406845 518.27385,124.1452 488.9836,158.8457 428.56,230.43027 354.62188,341.72327 295.84596,449.55999 c -12.64803,23.20546 -35.5993,68.89788 -43.95118,87.5 -11.73523,26.13783 -13.09927,28.68412 -18.04266,33.68061 -8.92357,9.01942 -20.13614,12.7228 -33.94335,11.21105 z"
       id="path5097"
       inkscape:connector-curvature="0" />
    <path
       style="opacity:1;vector-effect:none;fill:#db2e39;fill-opacity:0;stroke-width:0.36443147;stroke-linecap:butt;stroke-linejoin:miter;stroke-miterlimit:4;stroke-dasharray:none;stroke-dashoffset:0;stroke-opacity:1"
       d="M 199.90877,581.95165 C 186.3717,580.46949 169.4934,571.60019 155.61029,558.67344 148.07143,551.65391 25.859125,389.88712 21.911739,381.70285 c -3.635224,-7.53706 -4.675616,-12.15732 -4.584036,-20.35715 0.196172,-17.56475 10.873356,-33.81939 27.425487,-41.75178 6.786308,-3.25225 11.610905,-4.17753 20.021212,-3.83972 6.452068,0.25914 7.357119,0.48922 13.080729,3.32539 4.237063,2.09954 7.559565,4.42476 10.685293,7.47797 3.029186,2.95891 20.506326,26.50023 52.606356,70.85957 26.43857,36.53572 48.44925,66.84289 48.91263,67.34928 0.66212,0.72358 1.44283,-0.72905 3.64629,-6.78447 1.54208,-4.23785 6.52792,-15.25931 11.07966,-24.49214 C 255.76596,330.0797 389.4995,143.478 470.46942,62.774274 496.12946,37.198595 516.13906,22.53491 530.43805,18.827315 c 6.69996,-1.737237 17.95374,-1.157061 24.45825,1.260918 11.09873,4.125825 20.0053,11.725116 24.57217,20.96556 2.33985,4.734351 2.71659,6.214668 2.97911,11.705533 0.50907,10.647526 -3.49643,18.789644 -12.48174,25.372091 C 549.11424,93.406845 518.27385,124.1452 488.9836,158.8457 428.56,230.43027 354.62188,341.72327 295.84596,449.55999 c -12.64803,23.20546 -35.5993,68.89788 -43.95118,87.5 -11.73523,26.13783 -13.09927,28.68412 -18.04266,33.68061 -8.92357,9.01942 -20.13614,12.7228 -33.94335,11.21105 z"
       id="path5099"
       inkscape:connector-curvature="0" />
    <path
       style="opacity:1;vector-effect:none;fill:#db2e39;fill-opacity:0;stroke-width:0.36443147;stroke-linecap:butt;stroke-linejoin:miter;stroke-miterlimit:4;stroke-dasharray:none;stroke-dashoffset:0;stroke-opacity:1"
       d="M 199.90877,581.95165 C 186.3717,580.46949 169.4934,571.60019 155.61029,558.67344 148.07143,551.65391 25.859125,389.88712 21.911739,381.70285 c -3.635224,-7.53706 -4.675616,-12.15732 -4.584036,-20.35715 0.196172,-17.56475 10.873356,-33.81939 27.425487,-41.75178 6.786308,-3.25225 11.610905,-4.17753 20.021212,-3.83972 6.452068,0.25914 7.357119,0.48922 13.080729,3.32539 4.237063,2.09954 7.559565,4.42476 10.685293,7.47797 3.029186,2.95891 20.506326,26.50023 52.606356,70.85957 26.43857,36.53572 48.44925,66.84289 48.91263,67.34928 0.66212,0.72358 1.44283,-0.72905 3.64629,-6.78447 1.54208,-4.23785 6.52792,-15.25931 11.07966,-24.49214 C 255.76596,330.0797 389.4995,143.478 470.46942,62.774274 496.12946,37.198595 516.13906,22.53491 530.43805,18.827315 c 6.69996,-1.737237 17.95374,-1.157061 24.45825,1.260918 11.09873,4.125825 20.0053,11.725116 24.57217,20.96556 2.33985,4.734351 2.71659,6.214668 2.97911,11.705533 0.50907,10.647526 -3.49643,18.789644 -12.48174,25.372091 C 549.11424,93.406845 518.27385,124.1452 488.9836,158.8457 428.56,230.43027 354.62188,341.72327 295.84596,449.55999 c -12.64803,23.20546 -35.5993,68.89788 -43.95118,87.5 -11.73523,26.13783 -13.09927,28.68412 -18.04266,33.68061 -8.92357,9.01942 -20.13614,12.7228 -33.94335,11.21105 z"
       id="path5101"
       inkscape:connector-curvature="0" />
  </g>
</svg>
